<svg width="1269" height="423" viewBox="0 0 1269 423" fill="none" xmlns="http://www.w3.org/2000/svg">
<path d="M423 0H846V423H423V0Z" fill="#1E1E1E"/>
<path d="M508 136C508 107.833 530.833 85 559 85H710C738.167 85 761 107.833 761 136V287C761 315.167 738.167 338 710 338H559C530.833 338 508 315.167 508 287V136Z" fill="white"/>
<path d="M0 0H423V423H0V0Z" fill="#1E1E1E"/>
<path d="M85 136C85 107.833 107.833 85 136 85H287C315.167 85 338 107.833 338 136V287C338 315.167 315.167 338 287 338H136C107.833 338 85 315.167 85 287V136Z" fill="white"/>
<path d="M846 0H1269V423H846V0Z" fill="#1E1E1E"/>
<path d="M931 136C931 107.833 953.833 85 982 85H1133C1161.17 85 1184 107.833 1184 136V287C1184 315.167 1161.17 338 1133 338H982C953.833 338 931 315.167 931 287V136Z" fill="white"/>
</svg>
